<?xml version="1.0" standalone="no"?>
<!DOCTYPE svg PUBLIC "-//W3C//DTD SVG 20010904//EN"
 "http://www.w3.org/TR/2001/REC-SVG-20010904/DTD/svg10.dtd">
<svg version="1.0" xmlns="http://www.w3.org/2000/svg"
 width="530.000000pt" height="47.000000pt" viewBox="0 0 530.000000 47.000000"
 preserveAspectRatio="xMidYMid meet">
<metadata>
Created by potrace 1.13, written by Peter Selinger 2001-2015
</metadata>
<g transform="translate(0.000000,47.000000) scale(0.100000,-0.100000)"
fill="#000000" stroke="none">
<path d="M37 446 c-14 -21 -14 -26 -2 -36 20 -17 19 -25 -10 -54 -22 -22 -25
-34 -25 -94 0 -49 4 -73 15 -82 12 -10 12 -15 -2 -36 -14 -22 -14 -29 3 -84
14 -43 24 -60 37 -60 9 0 17 7 17 16 0 8 -5 12 -10 9 -6 -4 -17 9 -25 29 -17
41 -18 49 -6 41 5 -3 11 3 13 12 2 10 13 -10 23 -44 15 -46 25 -63 38 -63 21
0 21 0 1 60 -15 47 -15 49 6 78 23 31 23 34 19 145 -2 52 -7 71 -20 81 -15 10
-16 19 -9 51 10 44 4 61 -14 46 -9 -7 -16 -7 -23 0 -7 7 -15 2 -26 -15z m53
-36 c0 -11 -6 -20 -12 -20 -7 -1 -1 -11 13 -23 25 -21 27 -26 24 -101 -2 -47
1 -73 6 -65 13 21 11 1 -3 -24 -11 -21 -12 -20 -24 18 l-12 40 -7 -33 c-4 -18
-11 -34 -15 -37 -8 -5 -21 41 -25 87 -2 24 -1 25 12 13 8 -8 23 -15 33 -15 10
0 21 -6 23 -12 3 -7 5 1 5 17 0 17 -2 24 -5 18 -7 -18 -38 -16 -53 2 -7 8 -10
25 -7 36 5 17 3 19 -6 10 -6 -6 -11 -38 -12 -71 0 -33 -3 -60 -7 -60 -5 0 -8
32 -8 70 0 63 3 74 25 94 14 13 25 32 25 43 0 11 3 23 7 26 12 13 23 7 23 -13z"/>
<path d="M388 449 c-23 -17 -26 -24 -17 -40 8 -16 6 -30 -10 -63 -26 -53 -28
-132 -3 -159 10 -13 11 -17 3 -12 -11 6 -13 4 -8 -8 3 -9 1 -19 -5 -23 -7 -5
-8 -2 -4 7 4 8 0 5 -9 -6 -11 -13 -14 -30 -11 -49 3 -16 6 -44 6 -62 0 -27 4
-34 20 -34 11 0 20 7 20 16 0 8 -3 13 -7 11 -5 -3 -6 17 -5 43 3 32 10 55 23
66 18 16 19 17 13 1 -10 -28 28 -137 49 -137 21 0 21 0 1 60 -15 45 -15 51 2
78 17 29 16 31 -9 76 -14 25 -22 48 -18 50 4 3 15 -10 24 -29 9 -19 21 -35 26
-35 19 0 22 20 7 43 -31 46 -54 135 -46 177 10 56 2 62 -42 29z"/>
<path d="M698 449 c-24 -18 -26 -23 -16 -45 9 -18 9 -27 0 -36 -13 -13 -17
-170 -5 -182 10 -10 13 -37 2 -31 -19 13 -21 -44 -1 -72 10 -15 22 -40 26 -56
7 -30 46 -40 46 -11 0 8 -4 13 -9 10 -4 -3 -6 6 -3 21 3 16 1 24 -5 20 -15 -9
1 59 18 79 9 11 10 26 1 67 -7 29 -12 75 -11 102 0 28 0 67 0 88 0 22 1 44 2
49 4 19 -18 18 -45 -3z"/>
<path d="M1018 449 c-24 -17 -26 -23 -16 -44 7 -17 8 -28 1 -37 -14 -17 -10
-155 5 -191 9 -21 9 -26 0 -21 -8 5 -9 0 -6 -14 4 -14 2 -20 -4 -15 -8 4 -9
-5 -5 -27 4 -18 7 -48 7 -66 0 -27 4 -34 20 -34 11 0 20 5 20 10 0 6 9 10 20
10 11 0 20 4 20 10 0 17 -23 59 -30 55 -13 -8 -4 30 13 56 15 22 16 37 7 125
-10 92 -12 162 -7 186 4 19 -18 18 -45 -3z"/>
<path d="M1348 449 c-23 -17 -26 -24 -17 -40 8 -16 6 -30 -10 -63 -26 -53 -28
-132 -3 -159 10 -13 11 -17 3 -12 -11 6 -13 4 -8 -8 3 -9 1 -19 -5 -23 -7 -5
-8 -2 -4 7 4 8 0 5 -9 -6 -11 -13 -14 -30 -11 -49 3 -16 6 -44 6 -62 0 -27 4
-34 20 -34 11 0 20 7 20 16 0 8 -3 13 -7 11 -5 -3 -6 17 -5 43 3 32 10 55 23
66 18 16 19 17 13 1 -10 -28 28 -137 49 -137 21 0 21 0 1 60 -15 45 -15 51 1
78 16 27 16 30 1 58 -16 27 -16 18 1 -23 6 -15 4 -16 -9 -5 -11 9 -16 28 -15
59 l0 46 19 -37 c10 -20 23 -36 28 -36 18 0 21 20 6 43 -31 46 -54 135 -46
177 10 56 2 62 -42 29z"/>
<path d="M1658 449 c-23 -17 -26 -24 -17 -41 6 -11 7 -27 3 -36 -14 -31 -12
-155 3 -186 11 -20 11 -26 2 -20 -9 5 -10 2 -6 -10 4 -9 3 -14 -2 -11 -20 12
-22 -36 -3 -63 10 -15 22 -39 26 -55 4 -19 13 -27 27 -27 18 0 20 4 15 26 -18
69 -18 85 -2 109 14 22 15 38 6 127 -10 96 -12 166 -7 190 4 19 -18 18 -45 -3z"/>
<path d="M1978 449 c-24 -18 -26 -23 -16 -45 9 -18 9 -27 0 -36 -15 -15 -16
-174 -2 -183 6 -3 6 -15 0 -30 -5 -13 -7 -54 -3 -90 5 -54 9 -65 24 -65 11 0
19 5 19 10 0 6 9 10 20 10 24 0 25 9 3 54 -9 19 -21 32 -26 29 -6 -4 2 10 17
30 27 35 28 40 17 80 -6 23 -11 67 -10 97 0 30 0 72 0 93 0 22 1 44 2 49 4 19
-18 18 -45 -3z"/>
<path d="M2225 460 c-3 -5 2 -21 11 -36 18 -27 34 -104 38 -184 1 -25 6 -52
11 -59 6 -10 4 -12 -5 -6 -10 6 -12 4 -7 -8 3 -9 1 -19 -5 -23 -7 -5 -8 -2 -4
7 4 8 0 5 -9 -6 -11 -13 -14 -30 -11 -49 3 -16 6 -44 6 -62 0 -27 4 -34 20
-34 11 0 20 7 20 16 0 8 -3 13 -7 11 -5 -3 -6 17 -5 43 3 32 10 55 23 66 18
16 19 17 13 1 -10 -28 28 -137 49 -137 21 0 21 0 1 60 -15 45 -15 51 1 78 16
27 16 30 -4 70 -24 47 -28 94 -8 86 18 -7 52 20 43 35 -4 6 -16 9 -25 6 -31
-10 -50 24 -41 73 9 50 0 59 -34 37 -23 -15 -25 -15 -36 4 -12 23 -25 27 -35
11z"/>
<path d="M2705 450 c-3 -6 -11 -8 -16 -5 -5 4 -23 -3 -39 -15 -26 -18 -28 -24
-19 -42 8 -16 6 -29 -12 -62 -15 -30 -20 -49 -14 -62 4 -10 7 -25 6 -32 -1 -6
3 -28 8 -48 6 -20 7 -34 4 -30 -4 3 -17 -4 -30 -16 -19 -18 -23 -32 -23 -80 0
-51 2 -58 20 -58 11 0 20 7 20 16 0 8 -3 13 -8 10 -4 -2 -6 12 -4 33 3 29 11
41 40 60 20 14 32 18 25 10 -8 -10 -10 -34 -6 -72 5 -47 9 -57 24 -57 11 0 19
7 19 16 0 8 -3 13 -8 10 -15 -9 1 80 19 103 25 31 24 40 -5 79 -20 27 -22 39
-16 68 5 20 18 46 30 59 17 18 21 33 18 70 -3 46 -19 68 -33 45z"/>
<path d="M3598 429 c-23 -17 -26 -24 -17 -41 8 -16 6 -29 -12 -62 -15 -30 -20
-49 -14 -62 4 -10 7 -25 6 -32 -1 -6 3 -28 8 -48 6 -20 7 -34 4 -30 -4 3 -17
-4 -30 -16 -19 -18 -23 -32 -23 -80 0 -51 2 -58 20 -58 11 0 20 7 20 16 0 8
-3 13 -8 10 -4 -2 -6 12 -4 33 3 29 11 41 40 60 20 14 32 18 25 10 -8 -10 -10
-34 -6 -72 5 -47 9 -57 24 -57 11 0 19 7 19 16 0 8 -3 13 -8 10 -15 -9 1 80
19 103 25 31 24 40 -5 79 -20 28 -22 39 -15 70 4 20 12 38 17 40 5 1 18 9 28
17 19 15 19 15 0 30 -11 8 -25 15 -30 15 -6 0 -4 -5 4 -10 12 -7 11 -9 -6 -8
-18 2 -20 6 -14 40 10 54 1 60 -42 27z"/>
<path d="M4288 429 c-24 -18 -26 -23 -16 -45 13 -29 17 -25 -52 -51 -30 -11
-55 -26 -55 -34 0 -14 7 -14 69 -2 l29 6 -6 -45 c-4 -25 -2 -60 3 -78 5 -18 6
-30 3 -26 -4 3 -17 -4 -30 -16 -19 -18 -23 -32 -23 -80 0 -51 2 -58 20 -58 11
0 20 7 20 16 0 8 -3 13 -8 10 -4 -2 -6 12 -4 33 3 29 11 41 40 60 20 14 32 18
25 10 -8 -10 -10 -34 -6 -72 5 -47 9 -57 24 -57 11 0 19 7 19 16 0 8 -3 13 -8
10 -15 -9 1 80 19 103 24 31 24 40 -5 79 -25 35 -26 93 0 72 9 -8 19 -8 34 0
26 14 20 36 -8 33 -34 -4 -52 33 -43 84 11 59 3 65 -41 32z"/>
<path d="M4538 429 c-22 -17 -26 -24 -18 -39 15 -28 13 -35 -20 -47 -35 -13
-39 -32 -9 -40 19 -5 21 -11 16 -48 -4 -24 -2 -57 3 -75 5 -18 6 -30 3 -26 -4
3 -17 -4 -30 -16 -19 -18 -23 -32 -23 -80 0 -51 2 -58 20 -58 11 0 20 7 20 16
0 8 -3 13 -8 10 -4 -2 -6 12 -4 33 3 29 11 41 40 60 20 14 32 18 25 10 -8 -10
-10 -34 -6 -72 5 -47 9 -57 24 -57 11 0 19 7 19 16 0 8 -3 13 -8 10 -15 -9 1
80 19 103 24 31 24 40 -5 79 -25 35 -26 93 0 72 9 -8 19 -8 34 0 26 14 20 36
-8 33 -34 -4 -52 33 -43 84 11 59 3 65 -41 32z"/>
<path d="M5198 429 c-24 -17 -26 -23 -16 -44 9 -21 6 -27 -26 -55 -43 -38 -44
-47 -11 -62 19 -8 23 -16 19 -34 -3 -12 -1 -32 6 -43 9 -18 7 -27 -10 -51 -20
-28 -21 -34 -9 -85 9 -42 16 -55 31 -55 10 0 18 7 18 16 0 8 -4 13 -9 10 -5
-4 -7 4 -3 16 3 12 1 19 -5 15 -21 -13 0 53 22 67 21 14 23 14 18 -4 -3 -11 4
-36 16 -55 11 -20 21 -43 21 -51 0 -8 9 -14 20 -14 11 0 20 4 20 10 0 19 -33
79 -41 74 -5 -3 -2 11 6 30 20 46 19 49 -10 84 -19 23 -24 37 -19 61 6 27 9
29 26 20 29 -15 40 1 36 52 -2 31 -7 44 -18 44 -17 0 -22 -63 -6 -73 5 -3 7
11 3 31 -3 21 -2 37 4 37 5 0 9 -20 9 -45 0 -25 -3 -45 -7 -45 -18 1 -35 19
-31 31 3 8 0 21 -7 29 -10 11 -11 27 -6 57 11 59 3 65 -41 32z"/>
<path d="M3008 409 c-23 -17 -26 -24 -17 -41 9 -16 6 -29 -13 -64 -19 -37 -21
-47 -10 -64 8 -14 10 -32 3 -59 -5 -22 -7 -42 -5 -44 3 -2 -8 -12 -23 -21
l-28 -17 24 20 c13 12 19 21 14 21 -18 0 -46 -39 -39 -55 3 -9 2 -14 -3 -11
-11 7 -21 -17 -21 -50 0 -17 6 -24 20 -24 11 0 20 7 20 16 0 8 -5 12 -10 9 -6
-4 -3 9 6 28 10 20 30 41 49 50 18 9 36 25 40 36 8 25 26 28 22 4 -4 -28 -17
-44 -29 -37 -7 5 -9 0 -6 -14 4 -12 3 -20 -2 -17 -10 6 -20 -19 -20 -51 0 -17
6 -24 20 -24 11 0 20 7 20 16 0 8 -5 12 -11 9 -25 -16 32 72 60 93 38 28 39
41 2 76 -16 16 -28 33 -26 40 2 6 6 23 9 37 4 17 14 29 29 33 12 3 36 19 52
36 23 24 26 33 16 43 -10 10 -16 6 -33 -15 -13 -19 -29 -28 -47 -28 -27 0 -28
1 -21 40 10 56 2 62 -42 29z"/>
<path d="M3368 379 c-22 -17 -26 -24 -18 -39 8 -15 6 -20 -8 -25 -11 -3 -30
-17 -43 -31 -20 -21 -21 -28 -11 -44 8 -14 9 -32 3 -59 -5 -22 -7 -42 -5 -44
3 -2 -8 -12 -23 -21 l-28 -17 24 20 c13 12 19 21 14 21 -18 0 -46 -39 -39 -55
3 -9 2 -14 -3 -11 -11 7 -21 -17 -21 -50 0 -17 6 -24 20 -24 11 0 20 7 20 16
0 8 -5 12 -10 9 -6 -4 -3 9 6 28 10 20 30 41 49 50 18 9 36 25 40 36 8 25 26
28 22 4 -4 -28 -17 -44 -29 -37 -7 5 -9 0 -6 -14 4 -12 3 -20 -2 -17 -10 6
-20 -19 -20 -51 0 -17 6 -24 20 -24 11 0 20 7 20 16 0 8 -5 12 -11 9 -25 -16
32 72 60 93 37 27 38 38 6 72 -18 18 -22 29 -14 40 8 12 16 8 44 -24 27 -31
38 -37 47 -28 9 9 6 18 -13 39 -43 49 -68 90 -59 99 12 13 17 77 5 80 -5 2
-22 -6 -37 -17z"/>
<path d="M3978 379 c-22 -17 -26 -24 -18 -39 8 -15 6 -20 -8 -25 -11 -3 -30
-17 -43 -31 -20 -21 -21 -28 -11 -44 8 -14 9 -32 3 -59 -5 -22 -7 -42 -5 -44
3 -2 -8 -12 -23 -21 l-28 -17 24 20 c13 12 19 21 14 21 -18 0 -46 -39 -39 -55
3 -9 2 -14 -3 -11 -11 7 -21 -17 -21 -50 0 -17 6 -24 20 -24 11 0 20 7 20 16
0 8 -5 12 -10 9 -6 -4 -3 9 6 28 10 20 30 41 49 50 18 9 36 25 40 36 8 25 26
28 22 4 -4 -28 -17 -44 -29 -37 -7 5 -9 0 -6 -14 4 -12 3 -20 -2 -17 -10 6
-20 -19 -20 -51 0 -17 6 -24 20 -24 11 0 20 7 20 16 0 8 -5 12 -11 9 -25 -16
32 72 60 93 38 27 38 38 6 72 -25 26 -25 27 -7 50 14 17 30 23 68 24 35 2 49
7 49 17 0 10 -16 15 -58 17 -44 2 -56 6 -49 15 14 17 19 80 7 83 -5 2 -22 -6
-37 -17z"/>
<path d="M4938 379 c-22 -17 -26 -24 -18 -39 8 -15 6 -20 -8 -25 -11 -3 -30
-17 -43 -31 -20 -21 -21 -28 -11 -44 8 -14 9 -32 3 -59 -5 -22 -7 -42 -5 -44
3 -2 -8 -12 -23 -21 l-28 -17 24 20 c13 12 19 21 14 21 -18 0 -46 -39 -39 -55
3 -9 2 -14 -3 -11 -11 7 -21 -17 -21 -50 0 -17 6 -24 20 -24 11 0 20 7 20 16
0 8 -5 12 -10 9 -6 -4 -3 9 6 28 10 20 30 41 49 50 18 9 36 25 40 36 8 25 26
28 22 4 -4 -28 -17 -44 -29 -37 -7 5 -9 0 -6 -14 4 -12 3 -20 -2 -17 -10 6
-20 -19 -20 -51 0 -17 6 -24 20 -24 11 0 20 7 20 16 0 8 -5 12 -11 9 -25 -16
32 72 60 93 38 27 38 38 6 72 -25 26 -25 27 -7 50 14 17 30 23 68 24 35 2 49
7 49 17 0 10 -16 15 -58 17 -44 2 -56 6 -49 15 14 17 19 80 7 83 -5 2 -22 -6
-37 -17z"/>
</g>
</svg>
